<svg width="2198" height="2204" viewBox="0 0 2198 2204" fill="none" xmlns="http://www.w3.org/2000/svg">
<g clip-path="url(#clip0_1_2)">
<path d="M630.209 434.53L1580.78 266.918C1669.31 251.308 1753.74 310.421 1769.35 398.95L1888.7 1075.86C1904.31 1164.39 1845.2 1248.81 1756.67 1264.42L806.096 1432.04C717.567 1447.65 633.145 1388.53 617.535 1300L498.177 623.091C482.567 534.562 541.68 450.14 630.209 434.53Z" stroke="#203656" stroke-width="85.4538" stroke-miterlimit="10" stroke-linejoin="round"/>
<path d="M866.346 559.374L1522.81 735.359C1578.46 750.279 1585.32 789.169 1538.12 822.223L981.443 1212.12C934.249 1245.17 887.232 1222.3 876.429 1161.03L785.14 643.301C774.336 582.03 810.693 544.454 866.346 559.374Z" stroke="#203656" stroke-width="81.3846" stroke-miterlimit="10" stroke-linejoin="round"/>
<path d="M701.741 1777.56C688.082 1700.09 739.805 1626.23 817.269 1612.57C894.732 1598.91 968.601 1650.63 982.259 1728.09C995.918 1805.56 944.195 1879.43 866.732 1893.09C789.268 1906.74 715.4 1855.02 701.741 1777.56Z" stroke="#203656" stroke-width="85.4538" stroke-miterlimit="10" stroke-linejoin="round"/>
<path d="M1692.39 1602.88C1678.73 1525.42 1730.46 1451.55 1807.92 1437.89C1885.38 1424.23 1959.25 1475.95 1972.91 1553.42C1986.57 1630.88 1934.84 1704.75 1857.38 1718.41C1779.92 1732.07 1706.05 1680.34 1692.39 1602.88Z" stroke="#203656" stroke-width="85.4538" stroke-miterlimit="10" stroke-linejoin="round"/>
<path d="M1806.61 1437.16L1311.45 1524.47L816.289 1611.78C729.162 1627.14 644.058 1605.74 576.894 1558.71C509.73 1511.68 460.507 1439.03 445.144 1351.9L386.121 1017.17L328.375 689.671" stroke="#203656" stroke-width="85.4538" stroke-miterlimit="10" stroke-linejoin="round"/>
<path d="M200.359 510.324C233.941 533.839 263.038 563.758 285.66 598.69C308.281 633.623 324.428 673.567 332.109 717.13" stroke="#203656" stroke-width="85.4538" stroke-miterlimit="10" stroke-linecap="round" stroke-linejoin="round"/>
<path d="M927.25 2125.75H926.75C926.417 2127.42 924.75 2134.08 921.75 2145.75C918.917 2157.42 917.083 2165.08 916.25 2168.75C915.417 2172.25 914.667 2175.08 914 2177.25C913.5 2179.42 912.917 2181.92 912.25 2184.75C911.583 2187.42 910.917 2189.58 910.25 2191.25C909.75 2192.75 909.25 2194.25 908.75 2195.75C907.75 2198.58 906.75 2200 905.75 2200C903.583 2200 900.75 2197.67 897.25 2193C893.75 2188.17 892 2184.25 892 2181.25C892 2178.25 896.75 2157.42 906.25 2118.75C915.917 2080.08 920.917 2054.33 921.25 2041.5C921.25 2039 921.833 2037 923 2035.5C924.667 2032 929.583 2029.5 937.75 2028C946.083 2026.5 958.167 2025.75 974 2025.75C990 2025.75 1002.5 2026.58 1011.5 2028.25C1020.67 2029.92 1025.25 2032.25 1025.25 2035.25C1025.25 2037.25 1023.83 2038.67 1021 2039.5C1018.17 2040.33 1015.67 2041 1013.5 2041.5C1011.33 2041.83 1008.5 2042.25 1005 2042.75C1001.5 2043.08 998.25 2043.42 995.25 2043.75C992.25 2043.92 988.333 2044.25 983.5 2044.75C978.833 2045.25 974.5 2045.75 970.5 2046.25C966.5 2046.58 961.083 2047.17 954.25 2048C947.417 2048.83 943 2049.33 941 2049.5C941.167 2050 941.25 2050.75 941.25 2051.75C941.25 2059.58 938 2077.58 931.5 2105.75C941.833 2106.25 952.917 2106 964.75 2105C976.75 2104 984.083 2103.5 986.75 2103.5C993.083 2103.5 996.25 2104.83 996.25 2107.5C996.25 2112.67 989 2117 974.5 2120.5C960.167 2124 944.417 2125.75 927.25 2125.75ZM1033.86 2200C1031.36 2200 1028.53 2198.17 1025.36 2194.5C1022.19 2190.83 1020.61 2187.17 1020.61 2183.5C1020.61 2179.67 1025.19 2161.58 1034.36 2129.25C1043.53 2096.92 1048.78 2072.33 1050.11 2055.5C1047.94 2054.17 1046.03 2052.08 1044.36 2049.25C1042.69 2046.42 1041.86 2043.92 1041.86 2041.75C1041.86 2037.92 1047.53 2034 1058.86 2030C1070.19 2025.83 1082.69 2023.75 1096.36 2023.75C1110.19 2023.75 1122.11 2027.08 1132.11 2033.75C1142.28 2040.25 1147.36 2049.5 1147.36 2061.5C1147.36 2069.67 1145.03 2077.33 1140.36 2084.5C1135.86 2091.5 1130.28 2097.25 1123.61 2101.75C1117.11 2106.25 1110.61 2110.25 1104.11 2113.75C1097.61 2117.25 1092.03 2120.17 1087.36 2122.5C1082.86 2124.67 1080.61 2126.25 1080.61 2127.25C1080.61 2130.92 1083.44 2135.67 1089.11 2141.5C1094.94 2147.33 1099.03 2151.33 1101.36 2153.5C1103.69 2155.67 1106.78 2158.58 1110.61 2162.25C1114.44 2165.75 1118.03 2168.92 1121.36 2171.75C1124.86 2174.58 1127.61 2176.92 1129.61 2178.75C1131.78 2180.58 1133.94 2182.5 1136.11 2184.5C1140.28 2188.33 1142.36 2191.42 1142.36 2193.75C1142.36 2197.75 1139.61 2199.75 1134.11 2199.75C1124.11 2199.75 1109.86 2191.08 1091.36 2173.75C1072.86 2156.25 1061.53 2141.42 1057.36 2129.25C1049.53 2155.25 1045.03 2170.33 1043.86 2174.5C1042.69 2178.5 1041.36 2182.67 1039.86 2187C1037.19 2195.67 1035.19 2200 1033.86 2200ZM1071.61 2062.25C1071.61 2073.08 1068.11 2091 1061.11 2116C1063.94 2113.83 1069.36 2110.67 1077.36 2106.5C1085.36 2102.17 1092.53 2098.25 1098.86 2094.75C1105.36 2091.08 1111.28 2086.25 1116.61 2080.25C1121.94 2074.25 1124.61 2068 1124.61 2061.5C1124.61 2051.17 1115.61 2046 1097.61 2046C1089.44 2046 1079.94 2048.08 1069.11 2052.25C1070.78 2055.92 1071.61 2059.25 1071.61 2062.25ZM1206.86 2120.75C1197.86 2149.25 1193.36 2166.5 1193.36 2172.5C1193.36 2174.5 1193.94 2176.17 1195.11 2177.5C1196.44 2178.67 1198.11 2179.25 1200.11 2179.25C1219.27 2179.25 1240.44 2176.17 1263.61 2170C1271.11 2168 1275.44 2167 1276.61 2167C1279.11 2167 1280.36 2168.75 1280.36 2172.25C1280.36 2178.25 1271.11 2184.42 1252.61 2190.75C1234.27 2197.08 1216.52 2200.25 1199.36 2200.25C1191.69 2200.25 1184.94 2198 1179.11 2193.5C1173.44 2189 1170.61 2183.33 1170.61 2176.5C1170.61 2169.67 1173.02 2158 1177.86 2141.5C1182.86 2125 1187.86 2107.42 1192.86 2088.75C1197.86 2070.08 1200.36 2054.33 1200.36 2041.5C1200.36 2039.67 1200.69 2037.75 1201.36 2035.75C1204.19 2029.58 1222.36 2026.5 1255.86 2026.5C1289.36 2026.5 1306.11 2028.92 1306.11 2033.75C1306.11 2037.08 1302.52 2039.33 1295.36 2040.5C1289.36 2041.67 1281.36 2042.75 1271.36 2043.75C1261.52 2044.58 1254.61 2045.25 1250.61 2045.75C1246.61 2046.08 1236.94 2047.58 1221.61 2050.25V2051C1221.61 2062.33 1218.52 2079.42 1212.36 2102.25C1213.36 2102.42 1216.69 2102.5 1222.36 2102.5C1228.19 2102.5 1235.94 2102.08 1245.61 2101.25C1255.27 2100.42 1262.52 2100 1267.36 2100C1272.36 2100 1274.86 2101.17 1274.86 2103.5C1274.86 2109.33 1268.02 2113.67 1254.36 2116.5C1240.69 2119.33 1224.86 2120.75 1206.86 2120.75ZM1353.1 2120.75C1344.1 2149.25 1339.6 2166.5 1339.6 2172.5C1339.6 2174.5 1340.18 2176.17 1341.35 2177.5C1342.68 2178.67 1344.35 2179.25 1346.35 2179.25C1365.51 2179.25 1386.68 2176.17 1409.85 2170C1417.35 2168 1421.68 2167 1422.85 2167C1425.35 2167 1426.6 2168.75 1426.6 2172.25C1426.6 2178.25 1417.35 2184.42 1398.85 2190.75C1380.51 2197.08 1362.76 2200.25 1345.6 2200.25C1337.93 2200.25 1331.18 2198 1325.35 2193.5C1319.68 2189 1316.85 2183.33 1316.85 2176.5C1316.85 2169.67 1319.26 2158 1324.1 2141.5C1329.1 2125 1334.1 2107.42 1339.1 2088.75C1344.1 2070.08 1346.6 2054.33 1346.6 2041.5C1346.6 2039.67 1346.93 2037.75 1347.6 2035.75C1350.43 2029.58 1368.6 2026.5 1402.1 2026.5C1435.6 2026.5 1452.35 2028.92 1452.35 2033.75C1452.35 2037.08 1448.76 2039.33 1441.6 2040.5C1435.6 2041.67 1427.6 2042.75 1417.6 2043.75C1407.76 2044.58 1400.85 2045.25 1396.85 2045.75C1392.85 2046.08 1383.18 2047.58 1367.85 2050.25V2051C1367.85 2062.33 1364.76 2079.42 1358.6 2102.25C1359.6 2102.42 1362.93 2102.5 1368.6 2102.5C1374.43 2102.5 1382.18 2102.08 1391.85 2101.25C1401.51 2100.42 1408.76 2100 1413.6 2100C1418.6 2100 1421.1 2101.17 1421.1 2103.5C1421.1 2109.33 1414.26 2113.67 1400.6 2116.5C1386.93 2119.33 1371.1 2120.75 1353.1 2120.75Z" fill="#ADADAD" fill-opacity="0.64"/>
</g>
<defs>
<clipPath id="clip0_1_2">
<rect width="2198" height="2204" fill="white"/>
</clipPath>
</defs>
</svg>
