<svg width="2198" height="2204" viewBox="0 0 2198 2204" fill="none" xmlns="http://www.w3.org/2000/svg">
<g clip-path="url(#clip0_1_2)">
<g filter="url(#filter0_di_1_2)">
<path d="M630.209 434.53L1580.78 266.918C1669.31 251.308 1753.74 310.421 1769.35 398.95L1888.7 1075.86C1904.31 1164.39 1845.2 1248.81 1756.67 1264.42L806.096 1432.04C717.567 1447.65 633.145 1388.53 617.535 1300L498.177 623.091C482.567 534.562 541.68 450.14 630.209 434.53Z" stroke="#8E890F" stroke-width="85.4538" stroke-miterlimit="10" stroke-linejoin="round"/>
<path d="M866.346 559.374L1522.81 735.359C1578.46 750.279 1585.32 789.169 1538.12 822.223L981.443 1212.12C934.249 1245.17 887.232 1222.3 876.429 1161.03L785.14 643.301C774.336 582.03 810.693 544.454 866.346 559.374Z" stroke="#8E890F" stroke-width="81.3846" stroke-miterlimit="10" stroke-linejoin="round"/>
<path d="M701.741 1777.56C688.082 1700.09 739.805 1626.23 817.269 1612.57C894.732 1598.91 968.601 1650.63 982.259 1728.09C995.918 1805.56 944.195 1879.43 866.732 1893.09C789.268 1906.74 715.4 1855.02 701.741 1777.56Z" stroke="#8E890F" stroke-width="85.4538" stroke-miterlimit="10" stroke-linejoin="round"/>
<path d="M1692.39 1602.88C1678.73 1525.42 1730.46 1451.55 1807.92 1437.89C1885.38 1424.23 1959.25 1475.95 1972.91 1553.42C1986.57 1630.88 1934.84 1704.75 1857.38 1718.41C1779.92 1732.07 1706.05 1680.34 1692.39 1602.88Z" stroke="#8E890F" stroke-width="85.4538" stroke-miterlimit="10" stroke-linejoin="round"/>
<path d="M1806.61 1437.16L1311.45 1524.47L816.289 1611.78C729.162 1627.14 644.058 1605.74 576.894 1558.71C509.73 1511.68 460.507 1439.03 445.144 1351.9L386.121 1017.17L328.375 689.671" stroke="#8E890F" stroke-width="85.4538" stroke-miterlimit="10" stroke-linejoin="round"/>
<path d="M200.359 510.324C233.941 533.839 263.038 563.758 285.66 598.69C308.281 633.623 324.428 673.567 332.109 717.13" stroke="#8E890F" stroke-width="85.4538" stroke-miterlimit="10" stroke-linecap="round" stroke-linejoin="round"/>
</g>
<path d="M1092.75 2065.75C1092.75 2083.75 1084.08 2099 1066.75 2111.5C1049.58 2124 1026.83 2133 998.5 2138.5C986.333 2179.67 979.083 2200.25 976.75 2200.25C974.417 2200.25 971.667 2198.42 968.5 2194.75C965.333 2190.92 963.75 2187.17 963.75 2183.5C963.75 2179.67 966.167 2169.67 971 2153.5C986 2103.67 993.833 2068.92 994.5 2049.25C990.5 2045.58 988.5 2042.25 988.5 2039.25C988.5 2035.08 994.167 2031.08 1005.5 2027.25C1016.83 2023.42 1027.67 2021.5 1038 2021.5C1054 2021.5 1067.08 2025.58 1077.25 2033.75C1087.58 2041.92 1092.75 2052.58 1092.75 2065.75ZM1070.75 2067.25C1070.75 2059.92 1067.92 2053.92 1062.25 2049.25C1056.75 2044.42 1050.08 2042 1042.25 2042C1034.42 2042 1024.92 2044.5 1013.75 2049.5C1015.42 2053.17 1016.25 2056.58 1016.25 2059.75C1016.25 2069.08 1012.17 2088.83 1004 2119C1024 2113.67 1040.08 2106.33 1052.25 2097C1064.58 2087.5 1070.75 2077.58 1070.75 2067.25ZM1113.74 2200C1111.24 2200 1108.41 2198.17 1105.24 2194.5C1102.08 2190.83 1100.49 2187.17 1100.49 2183.5C1100.49 2179.67 1105.08 2161.58 1114.24 2129.25C1123.41 2096.92 1128.66 2072.33 1129.99 2055.5C1127.83 2054.17 1125.91 2052.08 1124.24 2049.25C1122.58 2046.42 1121.74 2043.92 1121.74 2041.75C1121.74 2037.92 1127.41 2034 1138.74 2030C1150.08 2025.83 1162.58 2023.75 1176.24 2023.75C1190.08 2023.75 1201.99 2027.08 1211.99 2033.75C1222.16 2040.25 1227.24 2049.5 1227.24 2061.5C1227.24 2069.67 1224.91 2077.33 1220.24 2084.5C1215.74 2091.5 1210.16 2097.25 1203.49 2101.75C1196.99 2106.25 1190.49 2110.25 1183.99 2113.75C1177.49 2117.25 1171.91 2120.17 1167.24 2122.5C1162.74 2124.67 1160.49 2126.25 1160.49 2127.25C1160.49 2130.92 1163.33 2135.67 1168.99 2141.5C1174.83 2147.33 1178.91 2151.33 1181.24 2153.5C1183.58 2155.67 1186.66 2158.58 1190.49 2162.25C1194.33 2165.75 1197.91 2168.92 1201.24 2171.75C1204.74 2174.58 1207.49 2176.92 1209.49 2178.75C1211.66 2180.58 1213.83 2182.5 1215.99 2184.5C1220.16 2188.33 1222.24 2191.42 1222.24 2193.75C1222.24 2197.75 1219.49 2199.75 1213.99 2199.75C1203.99 2199.75 1189.74 2191.08 1171.24 2173.75C1152.74 2156.25 1141.41 2141.42 1137.24 2129.25C1129.41 2155.25 1124.91 2170.33 1123.74 2174.5C1122.58 2178.5 1121.24 2182.67 1119.74 2187C1117.08 2195.67 1115.08 2200 1113.74 2200ZM1151.49 2062.25C1151.49 2073.08 1147.99 2091 1140.99 2116C1143.83 2113.83 1149.24 2110.67 1157.24 2106.5C1165.24 2102.17 1172.41 2098.25 1178.74 2094.75C1185.24 2091.08 1191.16 2086.25 1196.49 2080.25C1201.83 2074.25 1204.49 2068 1204.49 2061.5C1204.49 2051.17 1195.49 2046 1177.49 2046C1169.33 2046 1159.83 2048.08 1148.99 2052.25C1150.66 2055.92 1151.49 2059.25 1151.49 2062.25ZM1319.74 2165.25C1330.74 2155.42 1340.15 2143.33 1347.99 2129C1355.82 2114.5 1359.74 2100.83 1359.74 2088C1359.74 2075.17 1357.24 2064.75 1352.24 2056.75C1347.4 2048.75 1341.65 2044.75 1334.99 2044.75C1328.32 2044.75 1319.99 2049.92 1309.99 2060.25C1299.99 2070.58 1290.99 2084.17 1282.99 2101C1274.99 2117.67 1270.99 2133.67 1270.99 2149C1270.99 2158.17 1272.99 2165.67 1276.99 2171.5C1280.99 2177.17 1285.65 2180 1290.99 2180C1299.32 2180 1308.9 2175.08 1319.74 2165.25ZM1289.49 2199.75C1278.49 2199.75 1268.82 2194.33 1260.49 2183.5C1252.32 2172.67 1248.24 2161.67 1248.24 2150.5C1248.24 2135.33 1250.99 2119.92 1256.49 2104.25C1262.15 2088.58 1269.15 2074.92 1277.49 2063.25C1285.99 2051.58 1295.32 2042.08 1305.49 2034.75C1315.65 2027.25 1325.07 2023.5 1333.74 2023.5C1347.74 2023.5 1359.4 2029.92 1368.74 2042.75C1378.07 2055.42 1382.74 2069.75 1382.74 2085.75C1382.74 2101.75 1378.32 2118.58 1369.49 2136.25C1360.65 2153.75 1348.82 2168.75 1333.99 2181.25C1319.32 2193.58 1304.49 2199.75 1289.49 2199.75Z" fill="#8E890F"/>
</g>
<defs>
<filter id="filter0_di_1_2" x="153.628" y="221.684" width="1868.2" height="1724.33" filterUnits="userSpaceOnUse" color-interpolation-filters="sRGB">
<feFlood flood-opacity="0" result="BackgroundImageFix"/>
<feColorMatrix in="SourceAlpha" type="matrix" values="0 0 0 0 0 0 0 0 0 0 0 0 0 0 0 0 0 0 127 0" result="hardAlpha"/>
<feOffset dy="4"/>
<feGaussianBlur stdDeviation="2"/>
<feComposite in2="hardAlpha" operator="out"/>
<feColorMatrix type="matrix" values="0 0 0 0 0 0 0 0 0 0 0 0 0 0 0 0 0 0 0.25 0"/>
<feBlend mode="normal" in2="BackgroundImageFix" result="effect1_dropShadow_1_2"/>
<feBlend mode="normal" in="SourceGraphic" in2="effect1_dropShadow_1_2" result="shape"/>
<feColorMatrix in="SourceAlpha" type="matrix" values="0 0 0 0 0 0 0 0 0 0 0 0 0 0 0 0 0 0 127 0" result="hardAlpha"/>
<feOffset dy="4"/>
<feGaussianBlur stdDeviation="2"/>
<feComposite in2="hardAlpha" operator="arithmetic" k2="-1" k3="1"/>
<feColorMatrix type="matrix" values="0 0 0 0 1 0 0 0 0 1 0 0 0 0 1 0 0 0 0.25 0"/>
<feBlend mode="normal" in2="shape" result="effect2_innerShadow_1_2"/>
</filter>
<clipPath id="clip0_1_2">
<rect width="2198" height="2204" fill="white"/>
</clipPath>
</defs>
</svg>
